<svg width="100%" height="100%" viewBox="0 0 780 300" version="1.1"
     xmlns="http://www.w3.org/2000/svg" xmlns:xlink="http://www.w3.org/1999/xlink"
     xml:space="preserve" xmlns:serif="http://www.serif.com/"
     style="fill-rule:evenodd;clip-rule:evenodd;stroke-linejoin:round;stroke-miterlimit:1.41421;"><rect
                                id="sflive_tunis2020_small_white" x="0" y="0" width="780" height="300"
                                style="fill:none;"/>
    <g>
                            <path d="M260,62c0,-12.142 -9.858,-22 -22,-22l-176,0c-12.142,0 -22,9.858 -22,22l0,176c0,12.142 9.858,22 22,22l176,0c12.142,0 22,-9.858 22,-22l0,-176Z"
                                  style="fill:#d5054e;"/>
        <path d="M205.714,68.518c-12.24,0.419 -22.927,7.176 -30.881,16.499c-8.806,10.237 -14.663,22.37 -18.889,34.762c-7.548,-6.192 -13.368,-14.203 -25.488,-17.688c-9.363,-2.692 -19.197,-1.586 -28.242,5.154c-4.284,3.199 -7.236,8.031 -8.639,12.588c-3.635,11.815 3.818,22.336 7.206,26.109l7.408,7.93c1.523,1.557 5.202,5.616 3.401,11.43c-1.936,6.331 -9.563,10.418 -17.386,8.016c-3.495,-1.072 -8.514,-3.674 -7.388,-7.333c0.46,-1.502 1.534,-2.632 2.114,-3.913c0.524,-1.119 0.78,-1.95 0.939,-2.449c1.429,-4.66 -0.527,-10.729 -5.522,-12.274c-4.664,-1.431 -9.434,-0.297 -11.284,5.704c-2.097,6.819 1.167,19.197 18.651,24.583c20.484,6.304 37.807,-4.853 40.265,-19.394c1.549,-9.108 -2.567,-15.88 -10.1,-24.581l-6.142,-6.796c-3.717,-3.715 -4.996,-10.049 -1.148,-14.915c3.251,-4.11 7.873,-5.857 15.455,-3.798c11.062,2.999 15.989,10.676 24.213,16.867c-3.39,11.143 -5.614,22.326 -7.621,32.353l-1.233,7.481c-5.878,30.833 -10.368,47.772 -22.033,57.494c-2.352,1.673 -5.71,4.176 -10.772,4.355c-2.66,0.081 -3.517,-1.749 -3.554,-2.549c-0.06,-1.858 1.508,-2.713 2.55,-3.549c1.562,-0.853 3.919,-2.262 3.758,-6.781c-0.17,-5.339 -4.591,-9.966 -10.985,-9.754c-4.787,0.161 -12.085,4.662 -11.808,12.913c0.281,8.523 8.222,14.908 20.198,14.502c6.4,-0.215 20.696,-2.819 34.78,-19.56c16.395,-19.199 20.98,-41.199 24.428,-57.305l3.852,-21.266c2.136,0.258 4.424,0.432 6.912,0.49c20.422,0.432 30.629,-10.141 30.788,-17.836c0.103,-4.656 -3.053,-9.243 -7.475,-9.134c-3.158,0.088 -7.133,2.198 -8.082,6.568c-0.937,4.286 6.495,8.16 0.687,11.931c-4.125,2.668 -11.52,4.546 -21.936,3.023l1.893,-10.468c3.865,-19.848 8.633,-44.259 26.721,-44.856c1.319,-0.062 6.138,0.056 6.25,3.248c0.032,1.06 -0.234,1.339 -1.478,3.773c-1.272,1.899 -1.751,3.524 -1.689,5.38c0.174,5.064 4.026,8.399 9.606,8.205c7.459,-0.251 9.602,-7.511 9.479,-11.245c-0.305,-8.775 -9.55,-14.318 -21.779,-13.914Z"
              style="fill:#fefefe;"/>
        <path d="M609.826,75.902l-16.102,44.626c-3.001,8.39 -6.173,18.07 -16.79,18.07c-2.566,0 -4.029,-0.344 -5.485,-0.6l0.219,-2.787c0.311,-1.975 1.697,-3.257 3.526,-3.157c0.182,0.013 0.36,0.031 0.536,0.031c7.196,0 9.598,-9.932 9.598,-10.788c0,-0.941 -1.032,-3.167 -1.548,-4.625l-14.816,-40.77l5.615,0c0.013,0 0.023,0.01 0.039,0.01c1.704,0 3.358,1.175 4.064,2.76l10.837,33.374l0.176,0l11.076,-33.391c0.711,-1.578 2.359,-2.743 4.056,-2.743c0.02,0 0.029,-0.01 0.043,-0.01l4.956,0Zm-238.341,0l-16.102,44.626c-3,8.39 -6.169,18.07 -16.784,18.07c-2.57,0 -4.032,-0.344 -5.485,-0.6l0.215,-2.787c0.311,-1.975 1.695,-3.257 3.531,-3.157c0.176,0.013 0.357,0.031 0.535,0.031c7.196,0 9.594,-9.932 9.594,-10.788c0,-0.941 -1.028,-3.167 -1.544,-4.625l-14.815,-40.77l5.614,0c0.014,0 0.023,0.01 0.043,0.01c1.705,0 3.352,1.175 4.06,2.76l10.837,33.374l0.173,0l11.079,-33.391c0.716,-1.578 2.36,-2.743 4.056,-2.743c0.02,0 0.024,-0.01 0.043,-0.01l4.95,0Zm125.654,-1.026c13.277,0 22.178,9.594 22.178,22.867c0,12.505 -9.073,22.865 -22.178,22.865c-13.187,0 -22.265,-10.36 -22.265,-22.865c0,-13.273 8.9,-22.867 22.265,-22.867Zm230.239,43.294c0,-1.153 -0.547,-2.238 -1.474,-2.924c-0.927,-0.686 -2.125,-0.891 -3.228,-0.553c-2.466,0.746 -5.255,1.264 -7.472,1.264c-9.364,0 -14.302,-7.406 -14.302,-16.601c0,0 20.283,-0.003 27.262,-0.002c0.626,0.005 1.228,-0.24 1.673,-0.681c0.444,-0.441 0.695,-1.041 0.696,-1.667c-0.006,-12.152 -4.015,-21.912 -16.97,-21.912c-11.628,0 -18.535,9.449 -18.535,22.73c0,13.025 5.363,22.73 19.75,22.73c4.002,0 8.854,-0.851 12.6,-2.384l0,0Zm-421.169,2.349l-0.051,0c-4.076,0 -8.132,-1.117 -12.089,-2.395l0.243,-2.356c0.23,-2.105 1.71,-3.696 3.516,-3.401c2.878,0.909 6.293,1.695 9.442,1.705c5.38,-0.01 13.187,-2.995 13.226,-11.084c-0.062,-7.755 -7.383,-10.405 -14.063,-13.617c-6.808,-3.296 -13.138,-6.94 -13.157,-16.334c0.029,-10.746 8.337,-16.378 19.532,-16.446c3.071,0 6.597,0.424 9.971,1.263l-0.148,2.641c-0.219,1.818 -1.763,3.26 -3.607,3.125c-0.029,0 -0.029,0.028 -0.049,0.028c-1.747,-0.383 -3.534,-0.604 -5.77,-0.604c-0.01,0 -0.033,0 -0.053,0.004c-5.151,-0.008 -11.825,1.902 -11.85,9.171c0.129,6.844 7.401,9.155 14.053,12.556c6.779,3.444 13.152,7.651 13.171,17.669c-0.037,12.982 -9.779,17.985 -22.317,18.075Zm76.145,-0.937l-4.361,0l0,-43.68l3.851,0c0.013,0 0.023,0.01 0.039,0.01c2.005,0 3.62,1.615 3.649,3.613l0,2.719l0.172,0c3.077,-5.055 7.448,-7.368 13.87,-7.368c5.055,0 10.106,2.571 12.422,8.48c2.997,-6.25 9.59,-8.48 13.527,-8.48c11.141,0 15.16,7.196 15.16,16.704l0,25.152c-0.368,1.632 -1.816,2.848 -3.554,2.848c-0.006,0 -0.006,0.002 -0.01,0.002l-4.482,0l0,-26.034c0,-5.397 -1.29,-12.161 -7.798,-12.161c-8.218,0 -11.476,8.052 -11.476,16.188l0,18.682c-0.172,1.861 -1.711,3.323 -3.613,3.323c-0.01,0 -0.01,0.002 -0.014,0.002l-4.419,0l0,-26.034c0,-5.397 -1.29,-12.161 -7.798,-12.161c-8.222,0 -11.477,8.052 -11.477,16.188l0,18.242c-0.009,0.035 -0.027,0.057 -0.027,0.112c0,2.015 -1.634,3.651 -3.652,3.651c-0.003,0 -0.009,0.002 -0.009,0.002Zm148.617,0l-4.424,0l0,-43.68l4.1,0c0.013,0 0.017,0.01 0.037,0.01c2.017,0 3.651,1.634 3.651,3.657c0,0.008 0.008,0.008 0.008,0.012l0,3.265l0.168,0c2.403,-4.969 8.222,-7.97 14.305,-7.97c11.305,0 16.36,7.026 16.36,18.758l0,22.463c-0.092,1.937 -1.673,3.483 -3.632,3.483c-0.01,0 -0.01,0.002 -0.014,0.002l-4.41,0l0,-22.609c0,-10.194 -2.216,-15.159 -9.246,-15.586c-9.164,0 -13.277,7.366 -13.277,17.985l0,16.846c-0.148,1.879 -1.7,3.362 -3.616,3.362c-0.01,0 -0.01,0.002 -0.01,0.002Zm-72.38,0l-4.434,0l0,-37.166l-6.652,0c-0.01,0 -0.017,-0.01 -0.027,-0.01c-1.836,0 -3.341,-1.353 -3.603,-3.11l0,-3.394l10.282,0l0,-3.468c0,-10.622 2.743,-17.559 14.644,-17.559c2.05,0 3.77,0.256 5.395,0.514l-0.139,2.637c-0.111,1.923 -1.71,3.491 -3.636,3.35c-0.019,0 -0.015,0.022 -0.029,0.022c-0.133,-0.006 -0.268,-0.016 -0.397,-0.016c-6.932,0 -7.788,4.459 -7.788,10.366l0,4.154l11.563,0l0,3.04c-0.09,1.894 -1.615,3.411 -3.511,3.474l-8.052,0l0,34.007c-0.248,1.775 -1.757,3.157 -3.603,3.157c-0.009,0 -0.003,0.002 -0.013,0.002Zm187.277,-5.157l0,0.695c0,2.437 -1.975,4.413 -4.413,4.413l-25.298,0l0,-59.422c0,0 0.622,0 1.462,0c1.17,0 2.292,0.464 3.12,1.292c0.827,0.828 1.292,1.95 1.292,3.12l0,49.902l23.837,0Zm33.921,5.108l-6.299,0l-14.728,-43.418l2.652,0c1.919,0 3.619,1.241 4.203,3.069c2.866,8.964 11.022,34.474 11.022,34.474l0.171,0l11.589,-34.534c0.604,-1.797 2.288,-3.009 4.184,-3.009l2.445,0l-15.239,43.418Zm-24.682,-43.418l0,39.005c0,1.17 -0.465,2.293 -1.293,3.12c-0.827,0.828 -1.95,1.293 -3.12,1.293l-0.95,0l0,-43.418l5.363,0Zm-157.968,37.992c9.417,0 13.612,-8.566 13.612,-16.364c0,-8.304 -5.05,-16.356 -13.612,-16.356c-8.648,0 -13.703,8.052 -13.703,16.356c0,7.798 4.195,16.364 13.703,16.364Zm227.832,-19.348c0.231,-7.869 -2.773,-15.068 -11.299,-15.068c-7.917,0 -12.77,7.917 -12.77,15.068l24.069,0Zm-69.427,-28.552c0,-0.8 -0.317,-1.567 -0.883,-2.133c-0.566,-0.565 -1.333,-0.883 -2.132,-0.883l-0.002,0c-0.8,0 -1.567,0.318 -2.132,0.883c-0.566,0.566 -0.884,1.333 -0.884,2.133l0,0.184c0,0.8 0.318,1.567 0.884,2.132c0.565,0.566 1.332,0.884 2.132,0.884l0.002,0c0.799,0 1.566,-0.318 2.132,-0.884c0.566,-0.565 0.883,-1.332 0.883,-2.132l0,-0.184Z"
              style="fill:#d5054e;"/>
        <g transform="matrix(0.143972,0,0,0.143972,-1203.86,-1116.91)">
                                <g transform="matrix(355.642,0,0,355.642,10389,9099.78)">
                                    <path d="M0.549,-0.619c0.004,-0.004 0.007,-0.011 0.007,-0.021l0.002,-0.024l0.001,-0.024l-0.001,-0.013l0.001,-0.008l-0.001,0c-0.009,-0.008 -0.018,-0.013 -0.026,-0.013l-0.029,0l-0.011,0l-0.027,0.003l-0.012,-0.002l-0.024,0.001l-0.009,-0.001l-0.026,0.001l-0.009,0.001l-0.026,0.003l-0.006,-0.001c-0.003,-0.001 -0.008,-0.001 -0.011,-0.001l-0.02,0l-0.009,-0.002l-0.024,-0.001l-0.012,-0.001l-0.025,0l-0.013,0.003l-0.024,-0.001l-0.009,0.003l-0.039,-0.001l-0.024,0l-0.012,0.002l-0.021,-0.003l-0.012,-0.001l-0.019,-0.002l-0.008,0l-0.007,0l-0.025,0.002l-0.001,0c-0.008,-0.001 -0.017,0.005 -0.024,0.013l-0.002,0.009c-0.001,0.002 -0.001,0.005 -0.001,0.008l-0.001,0.019l-0.001,0.013l0,0.013c0,0.007 0.001,0.013 0.005,0.017c0.008,0.007 0.022,0.013 0.022,0.013l0.022,0.001l0.015,0l0.015,0.004c0.005,0.001 0.011,0.001 0.016,0.001l0.018,-0.002l0.014,-0.002l0.023,0.001l0.007,0.001l0.009,0l0.018,-0.002l0.012,-0.002l0.014,0.01l-0.001,0.011l0.001,0.013l0,0.022l-0.002,0.013l-0.002,0.021l0,0.009l0.001,0.004l0.001,0.022l0,0.018l0.005,0.032l-0.002,0.023l-0.002,0.012l0,0.022l0.003,0.012l0.001,0.023l-0.002,0.014l-0.002,0.013c-0.001,0.007 0,0.013 0.001,0.018l0.002,0.021l0,0.001c-0.001,0.006 -0.002,0.012 -0.001,0.018l0,0.026l0.002,0.009l-0.002,0.021l-0.002,0.009c0,0.002 -0.001,0.005 -0.001,0.007l0,0.018l0.002,0.015l0.001,0.023c-0.002,0.006 -0.003,0.012 -0.002,0.02l0.002,0.014l-0.001,0.011l0.001,0.025l0,0.039c0,0.007 0.004,0.015 0.01,0.024l0.001,0.001l0.004,0.001c0.004,0.001 0.009,0.001 0.013,0l0.004,-0.001l0.026,-0.001l0.006,0.001c0.004,0.001 0.01,0.001 0.014,0l0.019,-0.002c0.011,-0.001 0.028,-0.007 0.03,-0.024l0,-0.004l0,-0.025l0,-0.002c0,-0.004 0.001,-0.008 0,-0.013l-0.003,-0.019l0.001,-0.007c0,-0.004 -0.001,-0.005 -0.001,-0.009l-0.001,-0.016l0,-0.014l0.001,-0.021l-0.001,-0.013l0.002,-0.025l0,-0.006c0,-0.005 0.001,-0.008 0,-0.013l-0.003,-0.014l0.002,-0.013l-0.001,-0.024l-0.001,-0.011l0.003,-0.026l0,-0.012l0.002,-0.026l0,-0.01l-0.001,-0.025l-0.002,-0.031l0,-0.014l0.001,-0.029l0.002,-0.026l-0.004,-0.012l0.004,-0.027l0,-0.004c0.001,-0.004 0.001,-0.006 0.001,-0.009l0,-0.022l-0.001,-0.012l-0.002,-0.026l0.003,-0.015l0.014,-0.012c0.006,0.001 0.012,0.002 0.018,0.001l0.014,-0.002l0.013,0l0.021,0.002l0.007,0.001c0.003,0.001 0.008,0.001 0.011,0.001l0.049,0l0.037,-0.001c0.007,-0.001 0.013,-0.003 0.017,-0.007Z"
                                          style="fill:#d5054e;fill-rule:nonzero;"/>
                                </g>
            <g transform="matrix(355.642,0,0,355.642,10579.6,9099.78)">
                                    <path d="M0.642,-0.713l-0.008,-0.005l-0.006,-0.001l-0.009,0l-0.02,0.001l-0.015,0.002l-0.023,-0.002l-0.013,0.001l-0.002,0c-0.007,0.001 -0.019,0.005 -0.023,0.02c0,0.002 0,0.003 -0.001,0.004l0,0.024l0.002,0.012l0.001,0.022l-0.001,0.012l0.001,0.025l-0.001,0.004c-0.001,0.006 -0.001,0.009 0,0.015l0.002,0.015l-0.001,0.011l-0.001,0.023l0,0.012l0.001,0.02l0.001,0.012l-0.003,0.02l0.002,0.011l-0.002,0.023c0,0.002 -0.001,0.004 -0.001,0.006l0.001,0.008l0.002,0.022l0,0.038l0.002,0.012l0.002,0.025l0,0.01l-0.003,0.025l0,0.011c-0.001,0.006 -0.003,0.011 -0.002,0.017l0.001,0.003l-0.002,0.011l-0.004,0.022l-0.001,0.014l-0.009,0.021l-0.014,0.023l-0.007,0.012l-0.015,0.014l-0.026,0.017l-0.01,0.005l-0.022,0.008l-0.011,0.003l-0.021,0.003l-0.013,-0.003l-0.015,-0.002l-0.011,-0.001l-0.023,-0.002l-0.011,0l-0.022,-0.002l-0.013,-0.004l-0.015,-0.013l-0.007,-0.007l-0.019,-0.021l-0.014,-0.021l-0.008,-0.01l-0.008,-0.023l-0.003,-0.012l-0.001,-0.025l-0.003,-0.011l0.001,-0.002c0.001,-0.007 0,-0.012 -0.001,-0.018l0,-0.001l-0.001,-0.014l-0.002,-0.022c0.002,-0.006 0.002,-0.013 0.001,-0.019l-0.002,-0.013l0.001,-0.004c0.001,-0.006 0.001,-0.011 0.001,-0.016l-0.001,-0.013c0.003,-0.007 0.004,-0.015 0.004,-0.022l0,-0.011l0.002,-0.006c0.001,-0.003 0.001,-0.008 0.001,-0.011l0.001,-0.017l-0.001,-0.015l-0.003,-0.025c0.002,-0.007 0.003,-0.013 0.002,-0.021l-0.002,-0.009l0.001,-0.006l0,-0.009l-0.001,-0.017l0,-0.013l-0.001,-0.025l-0.002,-0.009l0.001,-0.026l0.001,-0.007l0,-0.008l0,-0.019l0.001,-0.005l0,-0.009l0,-0.019c0,-0.009 -0.004,-0.018 -0.011,-0.027l-0.004,-0.001c-0.004,-0.001 -0.01,-0.003 -0.014,-0.003l-0.004,0l-0.021,-0.001c-0.003,0 -0.006,-0.001 -0.01,0l-0.032,0.004c-0.009,0 -0.018,0.004 -0.026,0.012l-0.002,0.003c-0.002,0.004 -0.003,0.01 -0.003,0.015l-0.001,0.018l0.002,0.011l-0.001,0.011l0,0.007l0.002,0.02l0,0.025l-0.001,0.011l0.001,0.025l0.001,0.012l-0.002,0.024l0,0.008l-0.001,0.016c0,0.005 0.001,0.011 0.002,0.016l0.001,0.005l0.003,0.023l-0.002,0.011l0,0.024l-0.001,0.009l-0.001,0.023l0,0.011l0.003,0.025l-0.001,0.015l-0.002,0.027c-0.003,0.006 -0.003,0.014 -0.002,0.023l0.001,0.01l0.001,0.014l0.002,0.023l0,0.002c-0.001,0.006 -0.002,0.01 -0.001,0.016l0.002,0.014l0,0.003c0,0.007 0,0.012 0.002,0.018l0.006,0.017l0.01,0.023l0,0.002c0.001,0.007 0.003,0.015 0.007,0.021l0.006,0.011l0.009,0.012l0.007,0.014c0.002,0.004 0.005,0.006 0.007,0.009l0.003,0.005l0.011,0.013c0.002,0.003 0.004,0.004 0.006,0.006l0.005,0.005l0.017,0.012l0.011,0.006l0.023,0.012l0.034,0.015l0.01,0.002l0.014,0.007c0.003,0.002 0.008,0.002 0.012,0.003l0.006,0.001l0.014,0c0.005,0.002 0.012,0.004 0.017,0.004l0.006,0l0.021,0.001c0.007,0.002 0.015,0.002 0.023,0c0.008,0.001 0.015,0.001 0.02,-0.001l0.024,-0.001l0.034,-0.003l0.011,-0.002l0.023,-0.005c0.002,-0.001 0.005,-0.002 0.007,-0.003l0.007,-0.003l0.026,-0.01l0.023,-0.014l0.008,-0.01l0.023,-0.016l0.003,-0.002c0.003,-0.002 0.006,-0.004 0.008,-0.006l0.013,-0.014l0.004,-0.003c0.002,-0.003 0.004,-0.006 0.005,-0.008l0.009,-0.016l0.017,-0.031l0.004,-0.009l0.005,-0.013c0.003,-0.008 0.004,-0.016 0.003,-0.023l-0.001,-0.001l0.005,-0.021l0.001,-0.003c0.002,-0.004 0.003,-0.01 0.003,-0.015l0.001,-0.018l0.001,-0.003c0.001,-0.006 0.001,-0.014 0,-0.02l0,-0.003l-0.001,-0.009l0.001,-0.03l-0.002,-0.011l0.001,-0.028l0,-0.011l0.002,-0.021l0.002,-0.009c0,-0.003 0.001,-0.006 0.001,-0.008l0,-0.019c0,-0.002 -0.001,-0.005 -0.001,-0.007l-0.003,-0.026l0.001,-0.006c0.001,-0.005 0.001,-0.008 0.001,-0.013l-0.001,-0.02l0,-0.006c0,-0.002 -0.001,-0.005 -0.001,-0.008l-0.003,-0.018l0.002,-0.005c0.001,-0.004 0.002,-0.009 0.002,-0.014l-0.001,-0.015l0.001,-0.012l-0.003,-0.024l0.001,-0.003c0.001,-0.005 0.001,-0.012 0,-0.017l-0.002,-0.014l0.002,-0.012l0.003,-0.022c0,-0.003 0.001,-0.006 0.001,-0.008l0,-0.008l0,-0.016c0,-0.006 0,-0.012 -0.002,-0.017c-0.003,-0.006 -0.006,-0.01 -0.009,-0.012Z"
                                          style="fill:#d5054e;fill-rule:nonzero;"/>
                                </g>
            <g transform="matrix(355.642,0,0,355.642,10827.5,9099.78)">
                                    <path d="M0.66,-0.007c0.004,0 0.006,-0.006 0.007,-0.014l0.002,-0.024l-0.001,-0.01l0,-0.022l-0.001,-0.011l0,-0.014l0.002,-0.019l-0.002,-0.009l0.004,-0.024l-0.001,-0.01l0.002,-0.024l0,-0.011l0,-0.017c0,-0.004 0,-0.008 -0.001,-0.012l-0.001,-0.003l-0.003,-0.012l0,-0.02l-0.002,-0.015l0.002,-0.021l0,-0.009l0.001,-0.02l-0.001,-0.011l-0.002,-0.01l0.002,-0.015c0.001,-0.006 0.001,-0.009 0,-0.015l0,-0.004l-0.001,-0.024l0,-0.002c0.001,-0.005 0.002,-0.012 0.001,-0.017l-0.002,-0.014l0,-0.012l0.003,-0.028l-0.001,-0.01l0.003,-0.024l0,-0.007l0,-0.024l0,-0.015l-0.002,-0.021l-0.001,-0.01l0,-0.027l0.001,-0.012l0.002,-0.023l0.001,-0.006c0.001,-0.004 0.001,-0.01 0.001,-0.014l-0.001,-0.016l-0.001,-0.005c0,-0.002 0,-0.005 -0.002,-0.007c-0.005,-0.008 -0.021,-0.02 -0.021,-0.02l-0.009,-0.001l-0.007,0l-0.031,0.001l-0.022,0.001c-0.007,0 -0.013,0.001 -0.019,0.007c-0.007,0.007 -0.014,0.018 -0.013,0.018l-0.002,0.017c-0.001,0.007 0,0.015 0.003,0.022l0.001,0.028l0,0.01l-0.003,0.026l-0.001,0.003c-0.001,0.004 -0.001,0.006 -0.001,0.01l0.001,0.022l0,0.013l0.003,0.023l-0.001,0.012l-0.001,0.025l-0.001,0.005c-0.001,0.005 -0.002,0.012 -0.001,0.017l0.002,0.016l0.001,0.011l-0.003,0.024l-0.001,0.013l0,0.023l-0.002,0.007l0,0.008l0.001,0.021l0,0.014l0.003,0.023l-0.001,0.012l0.002,0.01l-0.01,0.004l-0.018,-0.018l-0.008,-0.008l-0.005,-0.007l-0.007,-0.008l-0.016,-0.018l-0.011,-0.007l-0.016,-0.015l-0.007,-0.005l-0.019,-0.019l-0.009,-0.008l-0.015,-0.016l-0.006,-0.007l-0.012,-0.016c-0.002,-0.003 -0.006,-0.006 -0.009,-0.009l-0.004,-0.004l-0.018,-0.018l-0.027,-0.024l-0.005,-0.006c-0.001,-0.002 -0.003,-0.004 -0.005,-0.006l-0.013,-0.014l-0.007,-0.008l-0.015,-0.015l-0.01,-0.008l-0.014,-0.014l-0.008,-0.009l-0.015,-0.02l-0.01,-0.006l-0.021,-0.023l-0.02,-0.018l-0.01,-0.011l-0.016,-0.019l-0.022,-0.022l-0.009,-0.006l-0.021,-0.019c-0.001,-0.001 -0.002,-0.002 -0.003,-0.004l-0.005,-0.006c-0.007,-0.001 -0.011,0.003 -0.012,0.009l-0.001,0.008l0,0.009l0.003,0.031l-0.002,0.025l0,0.068l0.002,0.015l-0.004,0.018c-0.001,0.003 -0.001,0.005 -0.001,0.009l0.001,0.005l0,0.026l0.002,0.012l0,0.024l-0.002,0.013l-0.001,0.024l0.004,0.049l-0.002,0.021l0.001,0.011l-0.001,0.026l0,0.012l0.002,0.024l0.002,0.014l-0.005,0.022l0,0.002c-0.001,0.004 -0.003,0.01 -0.003,0.014l0,0.016l0.002,0.016l-0.002,0.018c0,0.002 0.001,0.006 0.001,0.008l0.001,0.012l0.002,0.022l0.001,0.013l-0.002,0.023l0.002,0.01l0,0.024l-0.001,0.004c-0.001,0.005 -0.002,0.012 -0.002,0.017l0.001,0.011c0,0.005 0,0.009 0.003,0.012c0.007,0.008 0.022,0.019 0.023,0.019l0.026,0.003l0.015,-0.001l0.029,0l0.001,-0.001c0.007,-0.003 0.014,-0.006 0.019,-0.012l0.005,-0.005l0,-0.002c0.001,-0.006 0.002,-0.013 0.001,-0.019l-0.002,-0.015l0.001,-0.009l0,-0.022l0.001,-0.014l0.001,-0.024l0.001,-0.006c0.001,-0.004 0.002,-0.007 0.002,-0.012l0,-0.014c0,-0.003 -0.001,-0.005 -0.001,-0.008l-0.002,-0.012l0,-0.023l0,-0.007l0,-0.008l0,-0.023l0.001,-0.014l0.002,-0.025l0.001,-0.013l0,-0.021l-0.001,-0.011l0.001,-0.024l-0.001,-0.011l0,-0.026l0.001,-0.007c0.001,-0.002 0.001,-0.006 0.001,-0.008l0.002,-0.023l-0.002,-0.014l0.009,-0.007l0.015,0.011l0.009,0.008l0.007,0.009l0.009,0.007l0.017,0.019l0,0.003c0.003,0.005 0.008,0.009 0.012,0.013l0.011,0.008l0.005,0.007c0.002,0.002 0.004,0.005 0.006,0.007l0.012,0.011l0.011,0.006l0.017,0.019l0.006,0.006l0.014,0.018l0.006,0.007c0.001,0.002 0.004,0.004 0.006,0.005l0.018,0.014l0.004,0.007c0.001,0.002 0.003,0.005 0.005,0.007l0.015,0.014l0.004,0.004l0.019,0.017l0.006,0.007l0.015,0.015l0.002,0.003c0.003,0.005 0.006,0.009 0.01,0.013l0.011,0.009l0.01,0.009l0.018,0.016l0.004,0.007c0.002,0.004 0.006,0.007 0.009,0.01l0.015,0.013l0.028,0.028l0.017,0.02l0.01,0.007l0.015,0.019c0.002,0.002 0.005,0.005 0.007,0.007l0.02,0.015c0.004,0.005 0.01,0.008 0.013,0.007Z"
                                          style="fill:#d5054e;fill-rule:nonzero;"/>
                                </g>
            <g transform="matrix(355.642,0,0,355.642,11085.4,9099.78)">
                                    <path d="M0.206,-0.008l0.005,-0.006l0.001,-0.008l0,-0.008l-0.001,-0.02l0.002,-0.014l0,-0.022l-0.004,-0.013l0,-0.022l0.001,-0.015l0.002,-0.024l-0.003,-0.012l0.002,-0.026c0.002,-0.006 0.003,-0.012 0.003,-0.02l-0.001,-0.013l0.002,-0.013l0,-0.02l-0.002,-0.013l0.001,-0.009c0,-0.002 0.001,-0.005 0.001,-0.007l0,-0.007l0,-0.006c0,-0.004 0.001,-0.008 0,-0.012l-0.003,-0.019l-0.002,-0.01l0,-0.025l0.001,-0.003c0.002,-0.004 0.003,-0.009 0.003,-0.014l0.001,-0.018l-0.002,-0.009l0.001,-0.023l-0.002,-0.015l0.001,-0.025l0.001,-0.01l0.001,-0.023l-0.003,-0.012l0.001,-0.02l-0.001,-0.013l-0.001,-0.024l0,-0.013l-0.001,-0.026c0.003,-0.007 0.004,-0.015 0.004,-0.022l0,-0.015l-0.002,-0.009l-0.002,-0.024c0,-0.006 -0.002,-0.013 -0.01,-0.018c-0.008,-0.006 -0.018,-0.01 -0.018,-0.01l-0.029,0.001l-0.01,0l-0.026,-0.001l-0.003,0c-0.005,0 -0.011,-0.001 -0.016,0.002c-0.007,0.003 -0.013,0.008 -0.015,0.019c-0.001,0.002 -0.001,0.003 -0.001,0.005l0.003,0.024l0.003,0.01l0.001,0.027l-0.001,0.001c-0.003,0.006 -0.003,0.013 -0.003,0.021l0,0.011l-0.001,0.012c0,0.002 -0.001,0.006 -0.001,0.008l0.001,0.018l0.003,0.012l0,0.021l0.002,0.015l-0.004,0.018c-0.001,0.003 -0.001,0.008 -0.001,0.011l0.001,0.005l-0.002,0.02c0,0.004 -0.001,0.005 -0.001,0.009l0.001,0.007l0.004,0.022l-0.001,0.008c-0.001,0.004 -0.001,0.007 -0.001,0.01l0,0.031l-0.002,0.022l0,0.104c0,0.001 0.001,0.005 0.001,0.006l0.001,0.009l0.004,0.021l-0.002,0.011l-0.003,0.026l0.002,0.014l-0.002,0.015c-0.001,0.008 0,0.013 0.002,0.02l0.001,0.003l0,0.023l-0.002,0.014l0.001,0.021l0.002,0.013l0,0.023c-0.001,0.008 0.003,0.016 0.011,0.024l0.007,0.003c0.003,0.001 0.007,0.002 0.01,0.002l0.023,0.002l0.013,-0.001l0.018,-0.001c0.005,0 0.011,-0.001 0.015,-0.003l0.004,-0.002c0.007,0 0.014,-0.002 0.017,-0.006Z"
                                          style="fill:#d5054e;fill-rule:nonzero;"/>
                                </g>
            <g transform="matrix(355.642,0,0,355.642,11180.7,9099.78)">
                                    <path d="M0.2,0.013l0.034,-0.002l0.01,0.001l0.012,0.002l0.011,-0.002l0.001,0.001c0.006,0.001 0.012,0.002 0.018,0.001l0.002,0c0.009,-0.001 0.017,-0.002 0.022,-0.006l0.036,-0.007l0.019,-0.004c0.004,-0.001 0.008,-0.002 0.011,-0.004l0.021,-0.009l0.009,-0.003c0.002,-0.001 0.004,-0.002 0.006,-0.003l0.02,-0.009c0.002,-0.001 0.004,-0.002 0.006,-0.004l0.006,-0.004c0.008,-0.006 0.013,-0.012 0.016,-0.019l0.012,-0.012c0.002,-0.003 0.005,-0.005 0.006,-0.007l0.003,-0.005l0.011,-0.02c0.001,-0.003 0.003,-0.005 0.004,-0.009l0.006,-0.021l0.001,-0.003c0.002,-0.005 0.003,-0.009 0.003,-0.013l0.002,-0.016l0.002,-0.01l-0.003,-0.015l0.001,-0.001c0.001,-0.006 0.002,-0.011 0.001,-0.018l0,-0.002l-0.001,-0.016c0,-0.005 -0.002,-0.007 -0.003,-0.011l-0.002,-0.007l-0.009,-0.022l-0.007,-0.01l-0.01,-0.02c-0.001,-0.002 -0.002,-0.004 -0.003,-0.006l-0.005,-0.006l-0.007,-0.01c-0.004,-0.006 -0.008,-0.01 -0.014,-0.014l-0.004,-0.002l-0.028,-0.022l-0.025,-0.017c-0.003,-0.002 -0.006,-0.003 -0.009,-0.004l-0.019,-0.008l-0.011,-0.001l-0.024,-0.009l-0.01,-0.006l-0.014,-0.004l-0.004,-0.003c-0.004,-0.002 -0.008,-0.004 -0.012,-0.006l-0.007,-0.002l-0.023,-0.009l-0.037,-0.02l-0.02,-0.014l-0.011,-0.01l-0.018,-0.016l-0.004,-0.008l-0.005,-0.024l0.001,-0.01l0.004,-0.014l0.001,-0.01l0.01,-0.023l0.007,-0.012l0.017,-0.015l0.003,0c0.004,-0.001 0.009,-0.002 0.013,-0.004l0.018,-0.007l0.012,-0.003l0.024,-0.001l0.013,-0.002l0.009,-0.001l0.011,0l0.011,-0.002l0.024,0.003l0.048,0.008l0.023,0.008l0.012,0.004l0.02,0.006c0.007,0.005 0.017,0.005 0.027,0l0.001,-0.004l0,-0.01l0,-0.007l-0.001,-0.025l0,-0.029l0,-0.001c-0.001,-0.009 -0.003,-0.018 -0.008,-0.025l-0.005,-0.007l-0.007,-0.004c-0.002,-0.001 -0.004,-0.001 -0.006,-0.002l-0.004,-0.001l-0.025,-0.005l-0.012,-0.002l-0.02,-0.003l-0.009,-0.003c-0.002,-0.001 -0.006,-0.002 -0.009,-0.002l-0.019,-0.003l-0.009,-0.001l-0.023,-0.002l-0.013,-0.001l-0.006,-0.002c-0.005,-0.001 -0.01,-0.001 -0.015,0l-0.005,0.001l-0.024,0.001c-0.008,0 -0.016,0.002 -0.022,0.005l-0.024,0.002c-0.001,0 -0.003,0.001 -0.004,0.001l-0.007,0.001l-0.019,0.005c-0.006,0.001 -0.011,0.004 -0.016,0.007l-0.005,0.004l-0.019,0.007l-0.008,0.005c-0.003,0.001 -0.006,0.003 -0.009,0.006l-0.013,0.01l-0.005,0.005c-0.002,0.002 -0.005,0.003 -0.007,0.006l-0.015,0.018l-0.005,0.006c-0.002,0.002 -0.005,0.005 -0.007,0.008l-0.006,0.009c-0.002,0.002 -0.003,0.005 -0.004,0.008l-0.002,0.006l-0.007,0.015c-0.001,0.002 -0.002,0.005 -0.003,0.008l-0.003,0.011l-0.003,0.024l0,0.004l-0.001,0.008l0.002,0.015c-0.001,0.006 -0.002,0.011 -0.001,0.018l0.001,0.005l0.003,0.024l0.005,0.024c0.001,0.004 0.002,0.008 0.004,0.011l0.002,0.004l0.012,0.018c0.001,0.002 0.003,0.004 0.005,0.007l0.005,0.006l0.017,0.016l0.004,0.005c0.002,0.002 0.006,0.004 0.008,0.006l0.016,0.012l0.008,0.008l0.019,0.014l0.012,0.005l0.013,0.008c0.005,0.003 0.012,0.004 0.018,0.005l0.003,0.001l0.033,0.009l0.003,0.003c0.005,0.003 0.01,0.006 0.015,0.008l0.004,0.001l0.008,0.003l0.023,0.012l0.013,0.005l0.026,0.014l0.009,0.004l0.021,0.015l0.009,0.005l0.015,0.017l0.002,0.009l0.003,0.019l0,0.025l-0.001,0.012l0,0.012l-0.01,0.018l-0.01,0.012l-0.021,0.012l-0.006,0.001c-0.004,0 -0.008,0 -0.012,0.002l-0.006,0.002l-0.013,0.005l-0.015,0.003l-0.023,0.003l-0.004,-0.002c-0.004,-0.002 -0.01,-0.003 -0.014,-0.003l-0.005,0l-0.011,0l-0.01,-0.001l-0.011,0.002l-0.027,-0.006l-0.012,0.001l-0.023,-0.007l-0.015,-0.001l-0.022,-0.009l-0.004,-0.002c-0.003,-0.002 -0.007,-0.004 -0.011,-0.005l-0.023,-0.006c-0.002,-0.001 -0.005,-0.002 -0.007,-0.003l-0.008,-0.004c-0.007,0.004 -0.012,0.01 -0.011,0.016l0.002,0.012l0,0.021l-0.002,0.01c0,0.003 -0.001,0.005 -0.001,0.009l0.001,0.023l-0.001,0.011l0.004,0.005c0.006,0.007 0.013,0.011 0.02,0.014l0.021,0.007l0.011,0.006c0.005,0.003 0.012,0.006 0.019,0.007l0.046,0.006c0.007,0.005 0.014,0.007 0.022,0.008l0.006,0.001l0.009,0Z"
                                          style="fill:#d5054e;fill-rule:nonzero;"/>
                                </g>
            <g transform="matrix(355.642,0,0,355.642,11416.5,9099.78)">
                                    <path d="M0.046,-0.587l0.007,0.004l0.01,-0.002c0.002,-0.001 0.005,-0.001 0.007,-0.002l0.022,-0.01l0.01,-0.001l0.024,-0.007l0.01,-0.004l0.028,-0.004l0.012,0l0.037,0.004l0.021,0.002l0.014,0.003l0.02,0.012l0.008,0.006l0.01,0.005l0.013,0.021l0.005,0.009l0.004,0.013l0.004,0.011l0.005,0.009l0.004,0.025l-0.003,0.01l-0.003,0.012l-0.001,0.012l-0.001,0.012l-0.005,0.02l-0.002,0.014l-0.009,0.021l-0.002,0.01l-0.013,0.02l-0.003,0.008l-0.007,0.011l-0.01,0.02l-0.002,0.01l-0.016,0.021l-0.015,0.024l-0.009,0.01l-0.015,0.017l-0.007,0.007l-0.017,0.019l-0.005,0.008l-0.016,0.018l-0.003,0.008l-0.008,0.008l-0.015,0.016l-0.003,0.003c-0.003,0.003 -0.007,0.005 -0.009,0.008l-0.01,0.013l-0.005,0.009l-0.018,0.017l-0.007,0.009l-0.015,0.017l-0.004,0.004c-0.003,0.002 -0.006,0.006 -0.008,0.009l-0.01,0.013l-0.006,0.009l-0.002,0.003c-0.008,0.011 -0.013,0.022 -0.006,0.034c0.003,0.006 0.006,0.011 0.006,0.011l0.015,0.002c0.005,0.001 0.01,0.001 0.015,0l0.005,-0.001l0.024,-0.002l0.015,-0.002l0.032,0l0.019,0.003c0.004,0.001 0.009,0 0.013,0l0.004,0l0.024,0.001l0.009,0.001l0.008,0l0.016,-0.002l0.013,-0.002l0.025,-0.003l0.008,0.002l0.023,0.003l0.006,0l0.012,0.001l0.023,-0.003l0.014,0.001l0.021,-0.001l0.001,0.001c0.006,0.002 0.012,0.003 0.018,0.003l0.014,0l0.015,-0.001l0.011,0.001c0.008,0.001 0.016,-0.001 0.022,-0.003l0.012,0.002l0.002,-0.005c0.003,-0.007 0.005,-0.014 0.005,-0.023l0,-0.001l-0.001,-0.026l-0.001,-0.025c0,-0.003 0.001,-0.005 -0.001,-0.008c-0.005,-0.01 -0.025,-0.023 -0.025,-0.023l-0.023,0l-0.009,0.003l-0.025,-0.002l-0.01,0.001l-0.021,0.001l-0.005,-0.001c-0.004,-0.001 -0.009,-0.001 -0.013,0l-0.017,0.003l-0.012,-0.002l-0.024,0l-0.012,-0.001l-0.022,0l-0.011,0.001l-0.007,-0.003l-0.006,-0.006l0.008,-0.009l0.009,-0.009l0.015,-0.02l0.006,-0.009l0.014,-0.016l0.009,-0.009l0.014,-0.018l0.008,-0.008l0.013,-0.016l0.007,-0.011l0.013,-0.013c0.002,-0.002 0.004,-0.005 0.006,-0.008l0.004,-0.007l0.013,-0.02l0.015,-0.024l0.005,-0.005c0.002,-0.003 0.005,-0.005 0.006,-0.007l0.004,-0.007c0.004,-0.006 0.006,-0.013 0.007,-0.02l0.008,-0.023l0.005,-0.011l0.009,-0.02l0.003,-0.007c0.001,-0.003 0.002,-0.005 0.003,-0.009l0.003,-0.015l0.001,-0.012l0.002,-0.014c0.001,-0.007 0.001,-0.012 -0.001,-0.019l0.001,-0.014l0.002,-0.008l0.001,-0.008l0,-0.01l-0.002,-0.018l-0.002,-0.014l-0.007,-0.024l-0.003,-0.009c-0.001,-0.003 -0.002,-0.004 -0.003,-0.007l-0.011,-0.018l-0.005,-0.009l-0.01,-0.016l-0.008,-0.011l-0.011,-0.016c-0.002,-0.003 -0.006,-0.006 -0.009,-0.009l-0.006,-0.005l-0.017,-0.011l-0.007,-0.006c-0.003,-0.003 -0.005,-0.005 -0.008,-0.006l-0.017,-0.008l-0.001,-0.001c-0.004,-0.003 -0.007,-0.004 -0.011,-0.006l-0.012,-0.004c-0.002,-0.001 -0.006,-0.002 -0.009,-0.002l-0.011,-0.002l-0.022,-0.004l-0.006,-0.001c-0.003,-0.001 -0.007,-0.002 -0.011,-0.002l-0.018,-0.001l-0.011,0.002l-0.009,-0.001l-0.023,0l-0.021,0.002l-0.014,0.001l-0.023,0.004l-0.004,0c-0.004,0.001 -0.007,0.001 -0.011,0.003l-0.018,0.006l-0.002,0.001c-0.006,0.002 -0.011,0.003 -0.016,0.007l-0.005,0.003c-0.008,0.005 -0.014,0.01 -0.015,0.013c-0.005,0.011 -0.008,0.02 -0.007,0.025l-0.002,0.025l-0.002,0.009l-0.002,0.025c0.001,0.009 0.005,0.015 0.009,0.018Z"
                                          style="fill:#d5054e;fill-rule:nonzero;"/>
                                </g>
            <g transform="matrix(355.642,0,0,355.642,11586.8,9099.78)">
                                    <path d="M0.044,-0.402l0.004,0.023l-0.001,0.003c-0.001,0.005 -0.002,0.011 -0.002,0.016l0.001,0.006l-0.002,0.011l0.002,0.009l-0.002,0.026l0.001,0.011l0,0.022l0.001,0.006c0,0.005 0.002,0.008 0.003,0.012l0.007,0.019l0.004,0.02c0.001,0.004 0.002,0.007 0.003,0.01l0.008,0.014l0.001,0.013c0.001,0.006 0.003,0.013 0.006,0.019l0.001,0l0.008,0.018l0.008,0.009l0.009,0.021l0.006,0.011l0.009,0.013c0.003,0.006 0.007,0.009 0.012,0.013l0.001,0.002l0.016,0.015l0.009,0.008l0.017,0.013l0.004,0.004c0.003,0.003 0.006,0.005 0.009,0.007l0.018,0.01l0.007,0.004c0.003,0.002 0.006,0.003 0.01,0.005l0.016,0.006l0.01,0.004l0.021,0.008l0.004,0.002c0.003,0.001 0.007,0.002 0.011,0.003l0.009,0.001c0.005,0.001 0.011,0.001 0.016,0l0.006,-0.001l0.021,-0.001l0.007,0c0.004,0 0.009,0 0.013,-0.001l0.015,-0.004c0.008,0 0.015,0 0.023,-0.004l0.012,-0.006l0.012,-0.004l0.018,-0.009l0.005,-0.002c0.004,-0.002 0.006,-0.003 0.009,-0.005l0.016,-0.012l0.008,-0.005l0.018,-0.014l0.011,-0.01l0.012,-0.011c0.003,-0.003 0.007,-0.005 0.009,-0.009l0.002,-0.004l0.014,-0.019c0.002,-0.003 0.004,-0.004 0.005,-0.007l0.011,-0.021l0.003,-0.008l0.012,-0.019l0.003,-0.007c0.001,-0.003 0.003,-0.006 0.004,-0.01l0.005,-0.021l0.002,-0.009l0.007,-0.026l0.004,-0.011l0.005,-0.024l0,-0.01l0.001,-0.02l0.001,-0.009l0.003,-0.025l-0.001,-0.013l0,-0.01l0.001,-0.005c0.002,-0.008 0.002,-0.013 0.001,-0.021l-0.001,-0.002l-0.001,-0.015c0,-0.003 0,-0.006 -0.001,-0.01l-0.003,-0.009l-0.003,-0.022l-0.001,-0.014l-0.004,-0.025c0.001,-0.007 0,-0.013 -0.002,-0.02l-0.003,-0.012l-0.003,-0.007l-0.005,-0.021c-0.001,-0.002 -0.002,-0.006 -0.003,-0.008l-0.005,-0.01l-0.014,-0.021l-0.014,-0.025l-0.005,-0.008l-0.009,-0.017c-0.001,-0.002 -0.004,-0.005 -0.005,-0.007l-0.006,-0.008l-0.01,-0.01c-0.004,-0.005 -0.009,-0.009 -0.015,-0.012l-0.001,0l-0.007,-0.007l-0.009,-0.006l-0.004,-0.004c-0.003,-0.003 -0.006,-0.006 -0.009,-0.008l-0.015,-0.009l-0.009,-0.007c-0.003,-0.002 -0.006,-0.003 -0.01,-0.005l-0.014,-0.005c-0.003,-0.001 -0.006,-0.001 -0.01,-0.002l-0.019,-0.003l-0.015,-0.004l-0.015,-0.003c-0.004,-0.001 -0.007,-0.002 -0.011,-0.002l-0.02,0.001l-0.011,-0.001l-0.005,-0.001c-0.005,-0.001 -0.011,0 -0.016,0.001l-0.017,0.003l-0.012,0.005l-0.021,0.005l-0.002,0.001c-0.005,0.001 -0.011,0.003 -0.015,0.005l-0.013,0.007l-0.007,0.003c-0.002,0.001 -0.004,0.001 -0.007,0.003l-0.017,0.01l-0.008,0.004c-0.002,0.001 -0.005,0.004 -0.007,0.006l-0.015,0.013l-0.006,0.011l-0.01,0.008c-0.006,0.005 -0.009,0.008 -0.012,0.014l-0.006,0.007c-0.005,0.006 -0.009,0.012 -0.01,0.019l-0.014,0.022l-0.006,0.011l-0.01,0.021l-0.002,0.003c-0.002,0.004 -0.004,0.008 -0.005,0.013l-0.005,0.019l-0.004,0.013l-0.006,0.023l-0.003,0.011l-0.002,0.022l-0.004,0.01l-0.003,0.017c-0.001,0.004 -0.001,0.01 -0.001,0.014l0,0.005Zm0.129,0.089l-0.003,-0.022l0,-0.002c0.001,-0.005 0.002,-0.012 0.001,-0.017l0,-0.005l-0.003,-0.012l-0.001,-0.01l0.003,-0.024l0.001,-0.012l0.003,-0.024l0.002,-0.004c0.002,-0.004 0.004,-0.009 0.005,-0.015l0.002,-0.016l0.01,-0.026l0,-0.014l0.012,-0.018l0.006,-0.011l0.015,-0.017l0.006,-0.011l0.018,-0.015l0.023,-0.015l0.008,-0.005l0.02,-0.003l0.011,-0.001l0.024,0.001l0.012,0l0.025,0.004l0.008,0.001l0.02,0.012l0.005,0.007c0.001,0.002 0.003,0.004 0.005,0.006l0.017,0.014l0.011,0.023l0.006,0.01l0.01,0.021l0.005,0.013l0.008,0.023l0.007,0.029l0.004,0.014l0.003,0.026l-0.002,0.03l0.002,0.012l-0.001,0.012l0.002,0.014l-0.001,0.026l-0.003,0.009l-0.002,0.026l-0.002,0.011l-0.006,0.021l-0.004,0.01l-0.007,0.021l0,0.011l-0.008,0.021l-0.005,0.013l-0.016,0.02l-0.02,0.018l-0.01,0.006l-0.02,0.01l-0.01,0.006l-0.025,0.005l-0.012,0l-0.008,-0.002l-0.014,0l-0.009,-0.001l-0.023,-0.002l-0.009,-0.004l-0.019,-0.01l-0.008,-0.01l-0.018,-0.019l-0.016,-0.018l-0.002,-0.008c-0.001,-0.003 -0.003,-0.006 -0.005,-0.01l-0.008,-0.014l-0.004,-0.014l-0.005,-0.021l-0.001,-0.013l-0.005,-0.021l0,-0.007l-0.003,-0.024l-0.002,-0.009Z"
                                          style="fill:#d5054e;fill-rule:nonzero;"/>
                                </g>
            <g transform="matrix(355.642,0,0,355.642,11803,9099.78)">
                                    <path d="M0.046,-0.587l0.007,0.004l0.01,-0.002c0.002,-0.001 0.005,-0.001 0.007,-0.002l0.022,-0.01l0.01,-0.001l0.024,-0.007l0.01,-0.004l0.028,-0.004l0.012,0l0.037,0.004l0.021,0.002l0.014,0.003l0.02,0.012l0.008,0.006l0.01,0.005l0.013,0.021l0.005,0.009l0.004,0.013l0.004,0.011l0.005,0.009l0.004,0.025l-0.003,0.01l-0.003,0.012l-0.001,0.012l-0.001,0.012l-0.005,0.02l-0.002,0.014l-0.009,0.021l-0.002,0.01l-0.013,0.02l-0.003,0.008l-0.007,0.011l-0.01,0.02l-0.002,0.01l-0.016,0.021l-0.015,0.024l-0.009,0.01l-0.015,0.017l-0.007,0.007l-0.017,0.019l-0.005,0.008l-0.016,0.018l-0.003,0.008l-0.008,0.008l-0.015,0.016l-0.003,0.003c-0.003,0.003 -0.007,0.005 -0.009,0.008l-0.01,0.013l-0.005,0.009l-0.018,0.017l-0.007,0.009l-0.015,0.017l-0.004,0.004c-0.003,0.002 -0.006,0.006 -0.008,0.009l-0.01,0.013l-0.006,0.009l-0.002,0.003c-0.008,0.011 -0.013,0.022 -0.006,0.034c0.003,0.006 0.006,0.011 0.006,0.011l0.015,0.002c0.005,0.001 0.01,0.001 0.015,0l0.005,-0.001l0.024,-0.002l0.015,-0.002l0.032,0l0.019,0.003c0.004,0.001 0.009,0 0.013,0l0.004,0l0.024,0.001l0.009,0.001l0.008,0l0.016,-0.002l0.013,-0.002l0.025,-0.003l0.008,0.002l0.023,0.003l0.006,0l0.012,0.001l0.023,-0.003l0.014,0.001l0.021,-0.001l0.001,0.001c0.006,0.002 0.012,0.003 0.018,0.003l0.014,0l0.015,-0.001l0.011,0.001c0.008,0.001 0.016,-0.001 0.022,-0.003l0.012,0.002l0.002,-0.005c0.003,-0.007 0.005,-0.014 0.005,-0.023l0,-0.001l-0.001,-0.026l-0.001,-0.025c0,-0.003 0.001,-0.005 -0.001,-0.008c-0.005,-0.01 -0.025,-0.023 -0.025,-0.023l-0.023,0l-0.009,0.003l-0.025,-0.002l-0.01,0.001l-0.021,0.001l-0.005,-0.001c-0.004,-0.001 -0.009,-0.001 -0.013,0l-0.017,0.003l-0.012,-0.002l-0.024,0l-0.012,-0.001l-0.022,0l-0.011,0.001l-0.007,-0.003l-0.006,-0.006l0.008,-0.009l0.009,-0.009l0.015,-0.02l0.006,-0.009l0.014,-0.016l0.009,-0.009l0.014,-0.018l0.008,-0.008l0.013,-0.016l0.007,-0.011l0.013,-0.013c0.002,-0.002 0.004,-0.005 0.006,-0.008l0.004,-0.007l0.013,-0.02l0.015,-0.024l0.005,-0.005c0.002,-0.003 0.005,-0.005 0.006,-0.007l0.004,-0.007c0.004,-0.006 0.006,-0.013 0.007,-0.02l0.008,-0.023l0.005,-0.011l0.009,-0.02l0.003,-0.007c0.001,-0.003 0.002,-0.005 0.003,-0.009l0.003,-0.015l0.001,-0.012l0.002,-0.014c0.001,-0.007 0.001,-0.012 -0.001,-0.019l0.001,-0.014l0.002,-0.008l0.001,-0.008l0,-0.01l-0.002,-0.018l-0.002,-0.014l-0.007,-0.024l-0.003,-0.009c-0.001,-0.003 -0.002,-0.004 -0.003,-0.007l-0.011,-0.018l-0.005,-0.009l-0.01,-0.016l-0.008,-0.011l-0.011,-0.016c-0.002,-0.003 -0.006,-0.006 -0.009,-0.009l-0.006,-0.005l-0.017,-0.011l-0.007,-0.006c-0.003,-0.003 -0.005,-0.005 -0.008,-0.006l-0.017,-0.008l-0.001,-0.001c-0.004,-0.003 -0.007,-0.004 -0.011,-0.006l-0.012,-0.004c-0.002,-0.001 -0.006,-0.002 -0.009,-0.002l-0.011,-0.002l-0.022,-0.004l-0.006,-0.001c-0.003,-0.001 -0.007,-0.002 -0.011,-0.002l-0.018,-0.001l-0.011,0.002l-0.009,-0.001l-0.023,0l-0.021,0.002l-0.014,0.001l-0.023,0.004l-0.004,0c-0.004,0.001 -0.007,0.001 -0.011,0.003l-0.018,0.006l-0.002,0.001c-0.006,0.002 -0.011,0.003 -0.016,0.007l-0.005,0.003c-0.008,0.005 -0.014,0.01 -0.015,0.013c-0.005,0.011 -0.008,0.02 -0.007,0.025l-0.002,0.025l-0.002,0.009l-0.002,0.025c0.001,0.009 0.005,0.015 0.009,0.018Z"
                                          style="fill:#d5054e;fill-rule:nonzero;"/>
                                </g>
            <g transform="matrix(355.642,0,0,355.642,11973.4,9099.78)">
                                    <path d="M0.044,-0.402l0.004,0.023l-0.001,0.003c-0.001,0.005 -0.002,0.011 -0.002,0.016l0.001,0.006l-0.002,0.011l0.002,0.009l-0.002,0.026l0.001,0.011l0,0.022l0.001,0.006c0,0.005 0.002,0.008 0.003,0.012l0.007,0.019l0.004,0.02c0.001,0.004 0.002,0.007 0.003,0.01l0.008,0.014l0.001,0.013c0.001,0.006 0.003,0.013 0.006,0.019l0.001,0l0.008,0.018l0.008,0.009l0.009,0.021l0.006,0.011l0.009,0.013c0.003,0.006 0.007,0.009 0.012,0.013l0.001,0.002l0.016,0.015l0.009,0.008l0.017,0.013l0.004,0.004c0.003,0.003 0.006,0.005 0.009,0.007l0.018,0.01l0.007,0.004c0.003,0.002 0.006,0.003 0.01,0.005l0.016,0.006l0.01,0.004l0.021,0.008l0.004,0.002c0.003,0.001 0.007,0.002 0.011,0.003l0.009,0.001c0.005,0.001 0.011,0.001 0.016,0l0.006,-0.001l0.021,-0.001l0.007,0c0.004,0 0.009,0 0.013,-0.001l0.015,-0.004c0.008,0 0.015,0 0.023,-0.004l0.012,-0.006l0.012,-0.004l0.018,-0.009l0.005,-0.002c0.004,-0.002 0.006,-0.003 0.009,-0.005l0.016,-0.012l0.008,-0.005l0.018,-0.014l0.011,-0.01l0.012,-0.011c0.003,-0.003 0.007,-0.005 0.009,-0.009l0.002,-0.004l0.014,-0.019c0.002,-0.003 0.004,-0.004 0.005,-0.007l0.011,-0.021l0.003,-0.008l0.012,-0.019l0.003,-0.007c0.001,-0.003 0.003,-0.006 0.004,-0.01l0.005,-0.021l0.002,-0.009l0.007,-0.026l0.004,-0.011l0.005,-0.024l0,-0.01l0.001,-0.02l0.001,-0.009l0.003,-0.025l-0.001,-0.013l0,-0.01l0.001,-0.005c0.002,-0.008 0.002,-0.013 0.001,-0.021l-0.001,-0.002l-0.001,-0.015c0,-0.003 0,-0.006 -0.001,-0.01l-0.003,-0.009l-0.003,-0.022l-0.001,-0.014l-0.004,-0.025c0.001,-0.007 0,-0.013 -0.002,-0.02l-0.003,-0.012l-0.003,-0.007l-0.005,-0.021c-0.001,-0.002 -0.002,-0.006 -0.003,-0.008l-0.005,-0.01l-0.014,-0.021l-0.014,-0.025l-0.005,-0.008l-0.009,-0.017c-0.001,-0.002 -0.004,-0.005 -0.005,-0.007l-0.006,-0.008l-0.01,-0.01c-0.004,-0.005 -0.009,-0.009 -0.015,-0.012l-0.001,0l-0.007,-0.007l-0.009,-0.006l-0.004,-0.004c-0.003,-0.003 -0.006,-0.006 -0.009,-0.008l-0.015,-0.009l-0.009,-0.007c-0.003,-0.002 -0.006,-0.003 -0.01,-0.005l-0.014,-0.005c-0.003,-0.001 -0.006,-0.001 -0.01,-0.002l-0.019,-0.003l-0.015,-0.004l-0.015,-0.003c-0.004,-0.001 -0.007,-0.002 -0.011,-0.002l-0.02,0.001l-0.011,-0.001l-0.005,-0.001c-0.005,-0.001 -0.011,0 -0.016,0.001l-0.017,0.003l-0.012,0.005l-0.021,0.005l-0.002,0.001c-0.005,0.001 -0.011,0.003 -0.015,0.005l-0.013,0.007l-0.007,0.003c-0.002,0.001 -0.004,0.001 -0.007,0.003l-0.017,0.01l-0.008,0.004c-0.002,0.001 -0.005,0.004 -0.007,0.006l-0.015,0.013l-0.006,0.011l-0.01,0.008c-0.006,0.005 -0.009,0.008 -0.012,0.014l-0.006,0.007c-0.005,0.006 -0.009,0.012 -0.01,0.019l-0.014,0.022l-0.006,0.011l-0.01,0.021l-0.002,0.003c-0.002,0.004 -0.004,0.008 -0.005,0.013l-0.005,0.019l-0.004,0.013l-0.006,0.023l-0.003,0.011l-0.002,0.022l-0.004,0.01l-0.003,0.017c-0.001,0.004 -0.001,0.01 -0.001,0.014l0,0.005Zm0.129,0.089l-0.003,-0.022l0,-0.002c0.001,-0.005 0.002,-0.012 0.001,-0.017l0,-0.005l-0.003,-0.012l-0.001,-0.01l0.003,-0.024l0.001,-0.012l0.003,-0.024l0.002,-0.004c0.002,-0.004 0.004,-0.009 0.005,-0.015l0.002,-0.016l0.01,-0.026l0,-0.014l0.012,-0.018l0.006,-0.011l0.015,-0.017l0.006,-0.011l0.018,-0.015l0.023,-0.015l0.008,-0.005l0.02,-0.003l0.011,-0.001l0.024,0.001l0.012,0l0.025,0.004l0.008,0.001l0.02,0.012l0.005,0.007c0.001,0.002 0.003,0.004 0.005,0.006l0.017,0.014l0.011,0.023l0.006,0.01l0.01,0.021l0.005,0.013l0.008,0.023l0.007,0.029l0.004,0.014l0.003,0.026l-0.002,0.03l0.002,0.012l-0.001,0.012l0.002,0.014l-0.001,0.026l-0.003,0.009l-0.002,0.026l-0.002,0.011l-0.006,0.021l-0.004,0.01l-0.007,0.021l0,0.011l-0.008,0.021l-0.005,0.013l-0.016,0.02l-0.02,0.018l-0.01,0.006l-0.02,0.01l-0.01,0.006l-0.025,0.005l-0.012,0l-0.008,-0.002l-0.014,0l-0.009,-0.001l-0.023,-0.002l-0.009,-0.004l-0.019,-0.01l-0.008,-0.01l-0.018,-0.019l-0.016,-0.018l-0.002,-0.008c-0.001,-0.003 -0.003,-0.006 -0.005,-0.01l-0.008,-0.014l-0.004,-0.014l-0.005,-0.021l-0.001,-0.013l-0.005,-0.021l0,-0.007l-0.003,-0.024l-0.002,-0.009Z"
                                          style="fill:#d5054e;fill-rule:nonzero;"/>
                                </g>
            <g transform="matrix(355.642,0,0,355.642,10389,9455.42)">
                                    <path d="M0.063,-0.715l-0.011,0.008c-0.002,0.002 -0.003,0.004 -0.003,0.006l-0.001,0.005l-0.002,0.021c0,0.001 0,0.002 0.001,0.004l0.004,0.008l0.008,0.008c0.002,0.003 0.005,0.003 0.008,0.003l0.006,-0.001l0.007,0.002l0.002,0l0.022,-0.001l0.016,0.001l0.011,0.013l0.004,0.011l0.001,0.026l-0.001,0.013l-0.001,0.022l0.001,0.014l-0.003,0.023l0,0.003l0.002,0.008l0.001,0.023l0,0.038l0.002,0.013l-0.003,0.025l-0.001,0.013l0.001,0.02l0,0.011l0.001,0.024l0.002,0.012l0.001,0.024l-0.002,0.011l-0.001,0.028l0,0.011l0.001,0.022l-0.001,0.013l0,0.001l0.001,0.02l-0.001,0.013l-0.001,0.025l0,0.002l0.001,0.01l0,0.025l0.002,0.014l0.002,0.023l0,0.01l-0.001,0.022l0,0.013l-0.002,0.026l0,0.009c0,0.001 0.001,0.004 0.002,0.005l0.01,0.011c0.002,0.002 0.005,0.002 0.007,0.002l0.006,0l0.022,0.003l0.002,0l0.01,-0.001c0.001,0 0.004,-0.002 0.005,-0.003l0.008,-0.009c0.001,-0.001 0.002,-0.003 0.002,-0.006l0,-0.009l0.002,-0.024l0,-0.002l-0.001,-0.012l-0.002,-0.022l0.001,-0.011l0.001,-0.025l0.001,-0.014l0.002,-0.022l-0.001,-0.015l-0.001,-0.02l-0.001,-0.012l0,-0.024l0.002,-0.011l0,-0.001l-0.003,-0.025l0.001,-0.011l0,-0.024l-0.001,-0.015l-0.002,-0.022l0.002,-0.012l0,-0.002l-0.003,-0.023l0.001,-0.01l0.002,-0.025l0.002,-0.009l0,-0.002l0,-0.022l0,-0.002l-0.003,-0.01l0.002,-0.025l0,-0.014l0.002,-0.02c0,-0.001 -0.001,-0.002 -0.001,-0.003l-0.003,-0.01l0.002,-0.025l0.002,-0.009l0,-0.001l0.001,-0.022l0,-0.002l-0.002,-0.01l0.001,-0.027l-0.001,-0.01l-0.001,-0.024l0.001,-0.01l0,-0.002l-0.002,-0.021l0.002,-0.011c0,-0.003 -0.001,-0.006 -0.003,-0.008l-0.006,-0.005c-0.001,-0.001 -0.003,-0.003 -0.004,-0.003l-0.011,-0.001l-0.034,-0.002l-0.014,-0.002l-0.024,-0.003l-0.002,0l-0.014,0.002l-0.025,0.004l-0.008,0c-0.001,0 -0.003,0.001 -0.004,0.002Z"
                                          style="fill:#d5054e;fill-rule:nonzero;"/>
                                </g>
            <g transform="matrix(355.642,0,0,355.642,10494.3,9455.42)">
                                    <path d="M0.191,-0.371l-0.002,0.009l-0.01,0.007l-0.008,0.004l-0.021,0.012l-0.013,0.007l-0.019,0.014l-0.002,0.002l-0.006,0.009l-0.015,0.015l-0.011,0.013l-0.011,0.018l-0.01,0.012l-0.01,0.017c0,0.001 -0.001,0.001 -0.001,0.003l-0.001,0.011l-0.003,0.026l-0.001,0.011l0,0.003l0.002,0.01l0.001,0.012l-0.001,0.014l0.002,0.021l0.003,0.012l0.009,0.018c0,0.001 0.001,0.002 0.002,0.003l0.008,0.006l0.014,0.019l0.008,0.01l0.014,0.016c0,0.001 0,0.001 0.001,0.002l0.009,0.005l0.021,0.012l0.007,0.007c0.001,0.001 0.002,0.002 0.003,0.002l0.023,0.007l0.012,0.004l0.002,0l0.025,0.003l0.01,0.004l0.022,0.005l0.004,0l0.01,-0.003l0.011,0.003l0.01,0l0.015,0.001l0.019,-0.003l0.002,-0.001l0.014,-0.006l0.024,-0.006l0.008,0.001c0.001,0 0.002,0 0.003,-0.001l0.021,-0.01l0.01,-0.002c0.001,0 0.002,-0.002 0.003,-0.002l0.018,-0.014l0.009,-0.007c0.001,-0.001 0.001,0 0.001,0l0.017,-0.018l0.008,-0.008c0.001,-0.001 0.001,0 0.001,-0.001l0.012,-0.016l0.006,-0.01l0.01,-0.021c0,-0.001 0.001,-0.002 0.001,-0.002l0.002,-0.012l0.006,-0.023l0.001,-0.011c0,-0.001 -0.001,-0.001 -0.001,-0.002l-0.002,-0.01l0.002,-0.012l0,-0.002l0,-0.009l-0.002,-0.022l0,-0.002l-0.004,-0.01l-0.01,-0.021c0,-0.001 -0.002,-0.002 -0.002,-0.002l-0.008,-0.009l-0.016,-0.018l-0.006,-0.011c0,-0.001 0,0 -0.001,-0.001l-0.014,-0.015l-0.008,-0.009c0,0 -0.001,0 -0.002,-0.001l-0.019,-0.015l-0.009,-0.006l-0.039,-0.021l0.001,-0.014l0.011,-0.006l0.019,-0.013l0.012,-0.009l0.018,-0.016l0.008,-0.01l0.019,-0.02l0.015,-0.018l0.008,-0.012c0,-0.001 0.001,-0.002 0.001,-0.002l0.005,-0.021l0.003,-0.011l0.002,-0.024l0.003,-0.011l0,-0.001l0.001,-0.009l-0.001,-0.002l-0.002,-0.012l0.002,-0.007l0,-0.004l-0.005,-0.022l0,-0.001l-0.004,-0.009l-0.007,-0.017l-0.001,-0.003l-0.007,-0.008l-0.008,-0.018c0,-0.001 -0.001,-0.001 -0.002,-0.002l-0.008,-0.008l-0.025,-0.025c0,0 -0.001,0 -0.002,-0.001l-0.021,-0.011l-0.026,-0.012l-0.008,-0.003l-0.024,-0.006l-0.012,-0.002l-0.021,-0.002l-0.015,-0.001l-0.022,0l-0.001,0l-0.012,0.002l-0.02,0.002l-0.012,0.001l-0.002,0l-0.02,0.006l-0.008,0.001c-0.001,0 -0.002,0.001 -0.003,0.001l-0.02,0.011l-0.001,0.001l-0.007,0.006l-0.02,0.012l-0.007,0.004c-0.001,0.001 0,0.001 -0.001,0.002l-0.016,0.016l-0.006,0.007l-0.017,0.021c0,0.001 -0.001,0.002 -0.001,0.002l-0.009,0.025l-0.005,0.014l-0.004,0.022l0,0.002l0.002,0.014l0,0.013l-0.002,0.009l0,0.003l0.005,0.022l0,0.009c0,0.002 0.001,0.002 0.001,0.003l0.011,0.022l0.007,0.011l0.01,0.02l0.007,0.01l0.019,0.02l0.017,0.013l0.001,0.001l0.012,0.006l0.017,0.01l0.008,0.007l0.012,0.007Zm-0.065,0.241l-0.006,-0.022l0,-0.012l0.002,-0.008l0,-0.002l-0.002,-0.011l0.002,-0.011l0.002,-0.022l0.007,-0.007c0,0 0.001,0 0.001,-0.001l0.013,-0.022l0.005,-0.007l0.02,-0.017l0.019,-0.018l0.009,-0.005l0.001,-0.001l0.018,-0.013l0.009,-0.003l0.001,0l0.02,-0.012l0.01,-0.003l0.02,-0.002l0.015,0.003l0.019,0.012l0.025,0.019l0.012,0.005l0.013,0.014l0.01,0.009l0.013,0.015c0,0 0,0.001 0.001,0.002l0.008,0.006l0.011,0.02l0.005,0.007l0.007,0.025l-0.001,0.013l-0.003,0.011l-0.001,0.002l0,0.013l-0.005,0.024l-0.005,0.011l-0.015,0.017c0,0 -0.001,0 -0.001,0.001l-0.007,0.01l-0.018,0.013l-0.014,0.005l-0.021,0.006c0,0 -0.001,0 -0.002,0.001l-0.008,0.004l-0.021,0.005l-0.011,-0.003l-0.002,0l-0.024,0l-0.002,0l-0.012,0.002l-0.021,-0.001l-0.012,-0.003l-0.025,-0.008l-0.01,-0.009l-0.019,-0.012l-0.009,-0.013l-0.015,-0.018l-0.006,-0.009Zm0.019,-0.371l-0.006,-0.021l0.001,-0.011l0,-0.001l-0.001,-0.013l-0.002,-0.011l0.001,-0.011l0.005,-0.023l0.005,-0.007c0,0 0.001,0 0.001,-0.001l0.01,-0.017l0.009,-0.007l0.018,-0.014l0.009,-0.009l0.018,-0.012l0.011,-0.003l0.021,-0.004l0.034,0.001l0.015,0.001l0.019,0.004l0.012,0.006l0.023,0.013l0.019,0.013l0.009,0.009l0.012,0.018l0.007,0.011l0.002,0.023l0,0.014l0.002,0.012l-0.001,0.015l-0.004,0.023l-0.004,0.012l-0.015,0.018l-0.008,0.01l-0.016,0.015l-0.011,0.008l-0.02,0.014l-0.009,0.006l-0.02,0.01l-0.011,0.003l-0.025,0.001l-0.011,-0.003l-0.023,-0.013l-0.008,-0.006l-0.022,-0.013l-0.007,-0.006l-0.018,-0.016l-0.003,-0.009c0,-0.001 -0.002,-0.003 -0.002,-0.003l-0.014,-0.016l-0.002,-0.01Z"
                                          style="fill:#d5054e;fill-rule:nonzero;"/>
                                </g>
            <g transform="matrix(355.642,0,0,355.642,10730.4,9455.42)">
                                    <path d="M0.012,-0.009l0.003,0.006c0.001,0.003 0.005,0.005 0.008,0.005l0.009,-0.001l0.025,0.002l0.01,0c0.001,0 0.004,-0.001 0.005,-0.002l0.013,-0.01c0.001,-0.001 0.001,0 0.001,-0.001l0.007,-0.009l0.004,-0.006c0,-0.001 0.001,-0.002 0.001,-0.002l0.007,-0.019l0.004,-0.012l0.012,-0.021c0,-0.001 0.001,-0.003 0.001,-0.003l0.002,-0.01l0.012,-0.024l0.004,-0.011l0.007,-0.021l0.005,-0.009l0.021,-0.013l0.013,0l0.034,-0.001l0.021,0l0.008,-0.003l0.025,-0.002l0.01,0.003c0.001,0 0.001,0.001 0.002,0.001l0.023,-0.002l0.01,-0.002l0.009,0.001l0.011,0l0.013,0.001l0.02,-0.001l0.013,0.002l0.011,0l0.012,-0.003l0.011,0.004l0.021,0l0.002,-0.001l0.012,-0.003l0.022,0.002l0.002,0l0.011,-0.002l0.015,0.01l0.008,0.013l0.004,0.009l0.011,0.021l0.001,0.009l0.001,0.002l0.009,0.023l0.006,0.011l0.009,0.021l0.016,0.032l0.005,0.007l0.001,0.007c0.001,0.004 0.003,0.006 0.006,0.007l0.023,0.007l0.02,-0.002l0.015,0l0.004,-0.001c0.002,-0.001 0.004,-0.003 0.005,-0.004l0.002,-0.002c0.002,-0.003 0.002,-0.006 0,-0.01l-0.001,-0.002l-0.003,-0.01l-0.006,-0.022l-0.001,-0.002l-0.006,-0.011l-0.01,-0.018l-0.005,-0.012l-0.011,-0.022l-0.002,-0.011c0,-0.001 -0.001,-0.003 -0.001,-0.003l-0.013,-0.018l-0.006,-0.011l-0.006,-0.021c0,0 -0.001,-0.001 -0.001,-0.002l-0.007,-0.01l-0.009,-0.025l-0.012,-0.027l-0.003,-0.01l0,-0.001l-0.012,-0.022l-0.003,-0.01c0,0 -0.001,-0.001 -0.001,-0.002l-0.011,-0.019l-0.006,-0.011l-0.012,-0.021l-0.004,-0.011l-0.008,-0.022l-0.005,-0.012l-0.011,-0.021l-0.001,-0.012c0,-0.001 -0.001,-0.001 -0.001,-0.002l-0.012,-0.022l-0.005,-0.009l-0.008,-0.023l-0.004,-0.012l-0.009,-0.018l-0.005,-0.012l-0.009,-0.022l-0.001,-0.001l-0.007,-0.012l-0.01,-0.023l-0.003,-0.009l-0.009,-0.021l-0.004,-0.007l-0.013,-0.023l-0.003,-0.012c0,-0.001 -0.001,0 -0.001,-0.001l-0.011,-0.022l-0.003,-0.011c0,0 -0.001,0 -0.001,-0.001l-0.012,-0.023l-0.001,-0.002c-0.001,-0.004 -0.005,-0.008 -0.01,-0.007l-0.002,0c-0.002,0 -0.005,0.003 -0.006,0.005l-0.003,0.005l-0.014,0.022l0,0.001l-0.005,0.011l-0.007,0.024l-0.004,0.012l-0.011,0.021l-0.006,0.008l-0.001,0.001l-0.01,0.024l-0.004,0.009l-0.01,0.023l-0.002,0.007l-0.01,0.023l-0.006,0.01l-0.011,0.023l-0.005,0.009l-0.006,0.011l-0.005,0.013l-0.003,0.01l-0.009,0.021l-0.006,0.009c0,0.001 -0.001,0.002 -0.001,0.002l-0.008,0.023l-0.005,0.011l-0.008,0.023l-0.006,0.01l-0.009,0.021l-0.006,0.007c0,0 -0.001,0.001 -0.001,0.002l-0.009,0.024l-0.007,0.011c0,0.001 -0.001,0.001 -0.001,0.001l-0.007,0.02l-0.006,0.008c0,0 -0.001,0.002 -0.001,0.003l-0.006,0.021l-0.006,0.007c0,0.001 -0.001,0.002 -0.001,0.002l-0.01,0.021l-0.004,0.011l-0.009,0.025c0,0.001 -0.001,0 -0.001,0.001l-0.002,0.011l-0.01,0.023l-0.004,0.008l-0.011,0.019c0,0.001 -0.001,0.002 -0.001,0.002l-0.003,0.01l-0.011,0.023l-0.007,0.011l0,0.001l-0.01,0.025l-0.002,0.006c-0.001,0.003 -0.001,0.006 0,0.008Zm0.189,-0.227l-0.006,-0.011l0.006,-0.011l0.001,-0.001l0.008,-0.026l0.003,-0.01l0.011,-0.021l0,-0.002l0.004,-0.011l0.011,-0.021l0.005,-0.009l0.008,-0.024l0.004,-0.009l0.007,-0.023l0.005,-0.01l0.012,-0.02l0.005,-0.01l0.008,-0.02l0,-0.001l0.003,-0.013l0.009,-0.02l0,-0.001l0.003,-0.01l0.011,-0.021l0.008,-0.015l0.01,0.003l0.005,0.008l0.006,0.015l0.006,0.01l0.005,0.011l0.008,0.02l0.002,0.009l0.011,0.022l0.002,0.012c0,0.001 0.001,0 0.001,0.001l0.009,0.021l0.017,0.034l0.005,0.012l0.007,0.021l0.004,0.009l0.007,0.018l0.006,0.011l0.01,0.024l0.004,0.01l0.008,0.025l0.005,0.01l-0.005,0.015l-0.009,-0.003l-0.004,0l-0.022,0.002l-0.015,0.001l-0.02,-0.001l-0.002,0l-0.012,0.002l-0.023,0.001l-0.014,-0.001l-0.026,-0.003l-0.026,0l-0.009,-0.002l-0.002,0l-0.025,0.004l-0.009,-0.002l-0.002,0l-0.025,0.003l-0.014,-0.002Z"
                                          style="fill:#d5054e;fill-rule:nonzero;"/>
                                </g>
            <g transform="matrix(355.642,0,0,355.642,10923.9,9455.42)">
                                    <path d="M0.634,-0.711l-0.005,-0.006c-0.001,-0.002 -0.004,-0.004 -0.006,-0.004l-0.01,-0.001l-0.002,0l-0.023,0.005l-0.009,-0.001c-0.001,0 -0.004,0 -0.005,0.001l-0.016,0.009c-0.001,0.001 -0.002,0.003 -0.003,0.004l-0.003,0.009l-0.011,0.02l-0.001,0.002l-0.003,0.01l-0.009,0.022l-0.006,0.011l0,0.001l-0.006,0.02l-0.004,0.012l-0.009,0.017l-0.005,0.009c0,0.001 -0.001,0.001 -0.001,0.001l-0.008,0.022l-0.005,0.01l-0.009,0.02l0,0.001l-0.003,0.01l-0.008,0.022l-0.003,0.011l-0.012,0.022c0,0.001 -0.001,0 -0.001,0.001l-0.003,0.01l-0.011,0.02l0,0.001l-0.003,0.008l-0.005,0.011l-0.006,0.012l-0.006,0.013l-0.007,0.02l-0.004,0.015l-0.011,0.022l-0.006,0.011l-0.009,0.019l-0.004,0.013l-0.011,0.022l-0.006,0.012l-0.008,0.02l-0.007,0.011l0,0.001l-0.007,0.021l-0.005,0.01l-0.007,0.01l-0.009,0l-0.004,-0.01l-0.003,-0.012c0,0 -0.001,-0.001 -0.001,-0.002l-0.004,-0.008l-0.002,-0.012l0,-0.002l-0.005,-0.01l-0.011,-0.021l-0.003,-0.008l-0.001,-0.001l-0.011,-0.019l-0.002,-0.012c0,0 -0.001,-0.001 -0.001,-0.002l-0.011,-0.023l-0.004,-0.011l-0.01,-0.02l0,-0.001l-0.006,-0.009l-0.008,-0.022l0,-0.001l-0.006,-0.011l-0.007,-0.013l-0.004,-0.011l-0.004,-0.012c0,-0.001 -0.001,0 -0.001,-0.001l-0.011,-0.019l0,-0.008l-0.001,-0.003l-0.008,-0.021l-0.004,-0.008l-0.01,-0.025l-0.006,-0.01l-0.009,-0.022l-0.005,-0.011l-0.006,-0.02l-0.005,-0.012l0,-0.001l-0.011,-0.018l-0.006,-0.01l-0.005,-0.017l-0.004,-0.013l-0.008,-0.023l-0.007,-0.012l-0.011,-0.021l-0.003,-0.01c0,-0.001 -0.002,-0.003 -0.003,-0.004l-0.011,-0.008c-0.002,-0.002 -0.004,-0.003 -0.007,-0.002l-0.009,0.002l-0.024,0l-0.015,0.001c-0.002,0 -0.006,0.002 -0.007,0.004l-0.003,0.005c-0.002,0.003 -0.003,0.007 -0.001,0.01l0.005,0.007l0.007,0.025l0.005,0.008l0.013,0.023l0.004,0.011l0.012,0.024l0.002,0.01l0,0.002l0.008,0.018l0.005,0.009l0.011,0.023l0.003,0.009l0.01,0.021l0.004,0.011l0.01,0.025l0.005,0.009l0.01,0.024l0.002,0.011l0,0.001l0.009,0.021l0.007,0.011l0.01,0.021l0.016,0.029l0.006,0.012l0.008,0.02l0.016,0.032l0.003,0.011l0,0.002l0.01,0.021l0.005,0.011l0.013,0.023l0.005,0.014l0.008,0.017l0.002,0.009l0.011,0.023l0.007,0.009l0.01,0.025l0.001,0.01l0.001,0.002l0.007,0.021l0.008,0.013l0.006,0.022l0.005,0.011l0.012,0.019l0.005,0.007l0.003,0.005c0.002,0.004 0.004,0.005 0.005,0.005c0.004,0 0.007,-0.003 0.008,-0.006l0.002,-0.003l0.006,-0.013l0.009,-0.018l0,-0.002l0.003,-0.01l0.008,-0.019l0.006,-0.011l0.011,-0.023l0.004,-0.01l0.011,-0.017l0.006,-0.015l0.007,-0.023l0.005,-0.01l0.01,-0.023l0.004,-0.009l0.008,-0.022l0.006,-0.008l0.001,-0.001l0.009,-0.018l0.001,-0.002l0.002,-0.012l0.013,-0.023l0.005,-0.011l0.013,-0.022l0.005,-0.009l0.006,-0.02c0,-0.001 0.001,-0.001 0.001,-0.002l0.001,-0.01l0.011,-0.022l0.008,-0.013l0.01,-0.024l0.001,-0.002l0.001,-0.007l0.011,-0.021l0.005,-0.009l0.009,-0.023l0.007,-0.01l0.01,-0.021l0.001,-0.002l0.002,-0.009l0.009,-0.023l0.004,-0.014l0.007,-0.019l0.005,-0.014l0.011,-0.019l0.007,-0.01l0.001,-0.002l0.009,-0.021l0.007,-0.01c0,0 0.001,-0.001 0.001,-0.002l0.006,-0.025l0.002,-0.008c0.001,-0.003 0,-0.005 -0.001,-0.007Z"
                                          style="fill:#d5054e;fill-rule:nonzero;"/>
                                </g>
            <g transform="matrix(355.642,0,0,355.642,11141.9,9455.42)">
                                    <path d="M0.114,-0.715l-0.01,0.009c-0.002,0.002 -0.002,0.003 -0.002,0.005l-0.002,0.01l0.001,0.024l-0.001,0.011l0.002,0.022l0,0.012l-0.002,0.026l0.001,0.014l-0.004,0.021l0,0.003l0.003,0.013l-0.001,0.021l0,0.011l0.001,0.026l-0.002,0.011l0.001,0.023l-0.002,0.011l0.001,0.026l-0.002,0.012l0,0.003l0.003,0.009l-0.001,0.011l-0.002,0.012l0,0.002l0.002,0.02l0.003,0.012l0.002,0.02l-0.003,0.012l0,0.003l0.003,0.023l-0.002,0.01l-0.001,0.002l0.003,0.026l0,0.01l-0.003,0.025l0.001,0.012l0,0.025l-0.002,0.011l0,0.001l0.001,0.02l0,0.002l0.002,0.012l0.001,0.023l-0.001,0.011l-0.002,0.024l-0.001,0.012l-0.001,0.02l0,0.002l0.002,0.007l0,0.007c0,0.002 0.001,0.005 0.003,0.007l0.008,0.007c0.001,0.001 0.004,0.003 0.006,0.003l0.011,-0.001l0.025,0l0.009,-0.001c0.002,0 0.004,-0.001 0.005,-0.003l0.008,-0.009c0.001,-0.002 0.002,-0.003 0.002,-0.006l-0.001,-0.011l0.001,-0.023l0.001,-0.012l0.001,-0.021l0,-0.002l-0.003,-0.011l0,-0.023l0.001,-0.01l0,-0.001l-0.001,-0.025l0.001,-0.012l0,-0.023l0.001,-0.013l0,-0.02l0,-0.002l-0.003,-0.012l-0.002,-0.02l0.003,-0.011l0,-0.003l0,-0.008l0.014,-0.011l0.014,-0.001l0.038,0l0.026,0.001l0.011,0l0.009,-0.003l0.023,0.001l0.008,0.002c0.001,0 0.002,0.001 0.004,0l0.007,-0.002l0.016,0.011l0.008,0.013l0.011,0.02l0.006,0.013l0.012,0.019l0.006,0.011l0.011,0.023l0.006,0.015l0.008,0.018l0.006,0.01l0.011,0.019l0.008,0.012l0.013,0.022l0.008,0.012l0.012,0.019l0.006,0.012l0.012,0.021l0.007,0.014l0.014,0.009c0.001,0.001 0.003,0.002 0.005,0.002l0.012,-0.002l0.026,0.002c0.001,0 0.002,-0.001 0.003,-0.001l0.007,-0.002c0.002,0 0.003,-0.002 0.004,-0.003l0.003,-0.005c0.001,-0.002 0.002,-0.003 0.001,-0.006l-0.002,-0.007c0,-0.001 -0.001,0 -0.001,-0.001l-0.014,-0.027l-0.011,-0.021l-0.005,-0.011l-0.011,-0.021l-0.005,-0.009l0,-0.002l-0.015,-0.019l-0.003,-0.012c0,-0.001 -0.002,-0.002 -0.002,-0.003l-0.014,-0.018l-0.01,-0.022c0,-0.001 -0.001,-0.001 -0.001,-0.001l-0.007,-0.01l-0.01,-0.019l-0.004,-0.01l0,-0.001l-0.01,-0.019l-0.007,-0.009l-0.013,-0.022l-0.007,-0.009l0.008,-0.016l0.01,-0.006l0.001,0l0.01,-0.008l0.011,-0.004l0.001,0l0.014,-0.007l0.021,-0.011l0.001,-0.001l0.021,-0.017l0.006,-0.006c0,0 0.001,-0.001 0.001,-0.002l0.012,-0.02l0.008,-0.008c0.001,-0.001 0.002,-0.002 0.002,-0.003l0.008,-0.021l0.004,-0.007c0,-0.001 0.001,-0.002 0.001,-0.002l0.005,-0.023l0.003,-0.009l0.001,-0.002l0.001,-0.021l0.002,-0.01l0.001,-0.01l0,-0.001l-0.001,-0.012l0.002,-0.011l0,-0.003l-0.005,-0.02l0,-0.002l-0.005,-0.008l-0.004,-0.02l0,-0.001l-0.003,-0.008l0,-0.001l-0.011,-0.019l-0.003,-0.013c0,-0.001 -0.001,-0.001 -0.001,-0.002l-0.013,-0.017l-0.009,-0.008l-0.017,-0.016l-0.01,-0.007l-0.017,-0.01l-0.007,-0.003l-0.023,-0.012l-0.001,-0.001l-0.027,-0.007l-0.039,-0.014l-0.002,0l-0.023,-0.001l-0.014,0.001l-0.001,0l-0.013,0.002l-0.012,0.001l-0.012,-0.001l-0.024,-0.002l-0.01,0l-0.023,0l-0.013,0.002l-0.025,0l-0.013,-0.002l-0.002,0l-0.026,-0.001l-0.013,0.001l-0.024,-0.001l-0.002,0l-0.009,0.003c-0.001,0 -0.003,0.001 -0.004,0.002Zm0.16,0.063l0.025,0l0.011,0.001l0.008,-0.002l0.011,0.002l0.002,0l0.013,-0.001l0.009,-0.002l0.025,0.004l0.008,0.004l0.025,0.009l0.002,0.001l0.009,0.001l0.019,0.014l0.011,0.008l0.017,0.016l0.006,0.01l0.009,0.021l0.004,0.014l0.007,0.022l-0.002,0.011l0,0.002l0.002,0.025l-0.001,0.012l-0.007,0.023l-0.004,0.013l-0.011,0.018l-0.007,0.01l-0.013,0.018l-0.008,0.009l-0.021,0.011l-0.034,0.015l-0.013,0.003l-0.036,0.004l-0.01,-0.001l-0.001,0l-0.015,0.001l-0.013,0l-0.02,0.002l-0.012,-0.003l-0.003,0l-0.023,0.002l-0.011,0l-0.023,0l-0.01,-0.002l-0.002,0l-0.011,0.002l-0.011,-0.016l0.002,-0.008l0,-0.002l-0.002,-0.026l0.002,-0.011l-0.001,-0.026l0,-0.001l-0.002,-0.01l0.002,-0.011l0.001,-0.013l0,-0.001l-0.001,-0.012l0.001,-0.024l-0.001,-0.012l0.001,-0.022l-0.001,-0.013l-0.002,-0.025l0.003,-0.012l0,-0.002l0,-0.026l-0.001,-0.011l0.009,-0.015l0.014,-0.001l0.01,0l0.02,-0.001l0.011,0l0.024,0.003l0.01,0.001Z"
                                          style="fill:#d5054e;fill-rule:nonzero;"/>
                                </g>
            <g transform="matrix(355.642,0,0,355.642,11354.2,9455.42)">
                                    <path d="M0.162,-0.004l0.009,-0.008c0.001,-0.001 0.002,-0.003 0.002,-0.004l0.003,-0.012l0,-0.001l0.001,-0.024l0.001,-0.011l0,-0.001l0,-0.021l0.001,-0.011l0,-0.001l-0.002,-0.023l0,-0.012l0,-0.001l-0.002,-0.023l0.002,-0.011l0,-0.003l-0.003,-0.024l0.002,-0.008l0,-0.003l-0.003,-0.019l0.002,-0.013l0,-0.001l0,-0.025l0,-0.001l-0.001,-0.011l0.002,-0.022l0,-0.001l-0.001,-0.009l-0.002,-0.012l0.003,-0.013l0,-0.002l-0.001,-0.011l-0.002,-0.012l0.001,-0.011l0,-0.011l0.003,-0.023l0,-0.013l0.002,-0.025l0,-0.012l-0.002,-0.026l0.001,-0.01l-0.002,-0.027l-0.002,-0.01l0,-0.024l0,-0.009l0.001,-0.022l0.002,-0.013l0.001,-0.024l-0.001,-0.011l0,-0.024l-0.001,-0.014l-0.001,-0.027l0,-0.005c0,-0.002 -0.001,-0.006 -0.003,-0.007l-0.009,-0.008c-0.001,-0.001 -0.003,-0.001 -0.004,-0.001l-0.008,-0.002l-0.001,-0.001l-0.024,-0.001l-0.009,0.001c-0.002,0 -0.005,0.001 -0.006,0.002l-0.009,0.01c-0.001,0.001 -0.002,0.002 -0.002,0.004l-0.002,0.009l0,0.001l0,0.027l0.003,0.033l0,0.035l-0.002,0.012l0,0.024l0.002,0.01l-0.001,0.026l0.001,0.012l-0.003,0.026l-0.001,0.007l0,0.003l0.003,0.021l0,0.036l-0.002,0.013l0,0.025l0.001,0.009l0.003,0.022l-0.001,0.012l-0.001,0.026l0,0.001l0.001,0.009l0.002,0.028l-0.002,0.012l-0.001,0.022l0,0.003l0.003,0.008l-0.001,0.024l0,0.012l0.001,0.023l-0.003,0.011c0,0.001 -0.001,0.002 -0.001,0.003l0.003,0.033l-0.002,0.025l0,0.014l-0.001,0.023l0,0.009l0.003,0.023l-0.001,0.011l0,0.005c0,0.004 0.001,0.007 0.004,0.009l0.007,0.004c0.001,0 0.003,0.001 0.004,0.001l0.011,0.002l0.022,-0.001c0.001,0 0.002,0 0.003,-0.001l0.008,-0.003c0.001,-0.001 0.002,-0.001 0.002,-0.001Z"
                                          style="fill:#d5054e;fill-rule:nonzero;"/>
                                </g>
            <g transform="matrix(355.642,0,0,355.642,11442.4,9455.42)">
                                    <path d="M0.48,-0.001l0.009,-0.008c0.002,-0.001 0.002,-0.003 0.002,-0.006l0,-0.008l0.004,-0.018l0,-0.003l-0.002,-0.007c0,-0.002 -0.002,-0.004 -0.004,-0.005l-0.009,-0.005c-0.001,-0.001 -0.004,-0.001 -0.005,-0.001l-0.01,0.001l-0.028,-0.003l-0.028,0l-0.011,0l-0.024,0.001l-0.012,0l-0.009,0.001l-0.01,-0.003l-0.002,0l-0.012,0.001l-0.023,-0.001l-0.001,0l-0.008,0.002l-0.026,0.001l-0.012,-0.002l-0.022,-0.002l-0.002,0l-0.013,0.003l-0.018,-0.003l-0.002,0l-0.013,0.001l-0.009,-0.012l-0.002,-0.016l-0.001,-0.023l0,-0.001l-0.002,-0.012l0.003,-0.023l0,-0.011l0,-0.023l0,-0.014l0,-0.023l0,-0.003l-0.003,-0.006l0.002,-0.025l0,-0.002l-0.003,-0.012l0.002,-0.026l0,-0.012l0,-0.022l0,-0.001l-0.003,-0.013l0,-0.021l0.002,-0.012l0.001,-0.026l0.001,-0.01l0,-0.023l0.002,-0.01l0,-0.001l-0.002,-0.025l0,-0.011l-0.002,-0.025l0.002,-0.011l0.002,-0.027l-0.001,-0.011l0,-0.025l-0.001,-0.011l-0.001,-0.023l0,-0.014l-0.001,-0.023l0.002,-0.009l0,-0.003l0,-0.024l0.001,-0.01c0,-0.003 -0.002,-0.005 -0.004,-0.007l-0.009,-0.008c-0.001,-0.001 -0.003,-0.002 -0.004,-0.002l-0.008,-0.001l-0.001,0l-0.026,0.003l-0.008,0c-0.002,0 -0.005,0.001 -0.006,0.002l-0.008,0.008c-0.001,0.001 -0.002,0.003 -0.002,0.004l-0.001,0.01l-0.002,0.024l0.003,0.01l0,0.027l-0.003,0.011l0,0.001l-0.001,0.019l0.005,0.015l-0.002,0.025l0.001,0.013l0,0.024l-0.002,0.009l-0.002,0.025l0,0.012l0.001,0.025l-0.002,0.009c0,0.002 0.001,0.002 0.001,0.004l0.002,0.008l-0.001,0.012l0,0.01l-0.001,0.025l0,0.002l0.003,0.012l0,0.023l-0.003,0.012l-0.002,0.022l0.001,0.002l0.002,0.008l0,0.025l-0.001,0.01l0.001,0.025l0.001,0.013l0,0.024l0.001,0.012l0,0.02l0.001,0.012l-0.002,0.025l-0.002,0.014l0.001,0.022l-0.002,0.014l0,0.022l0.003,0.012l0,0.034c0,0.002 0.001,0.004 0.002,0.006l0.01,0.01c0.002,0.002 0.005,0.003 0.007,0.003l0.008,0l0.024,0.002c0.001,0 0.003,0 0.004,-0.001l0.007,-0.003l0.025,0l0.008,0.002l0.025,0l0.009,0.001l0.022,0.002l0.002,-0.001l0.013,-0.003l0.01,0.003l0.003,0l0.011,-0.003l0.012,0.001l0.022,0l0.012,0.003l0.002,0l0.023,-0.003l0.011,0l0.025,-0.003l0.014,0.003l0.002,0l0.023,-0.001l0.029,0l0.008,0.001c0.002,0 0.005,-0.001 0.007,-0.002Z"
                                          style="fill:#d5054e;fill-rule:nonzero;"/>
                                </g>
                            </g>
                        </g></svg>
